<?xml version="1.0" standalone="no"?>
<!DOCTYPE svg PUBLIC "-//W3C//DTD SVG 20010904//EN"
 "http://www.w3.org/TR/2001/REC-SVG-20010904/DTD/svg10.dtd">
<svg version="1.0" xmlns="http://www.w3.org/2000/svg"
 width="1280.000000pt" height="1280.000000pt" viewBox="0 0 1280.000000 1280.000000"
 preserveAspectRatio="xMidYMid meet">

<g transform="translate(0.000000,1280.000000) scale(0.100000,-0.100000)"
fill="#000000" stroke="none">
<path d="M0 6400 l0 -6400 6400 0 6400 0 0 6400 0 6400 -6400 0 -6400 0 0
-6400z m6855 4694 c606 -49 1196 -214 1760 -490 1140 -558 2034 -1543 2480
-2729 47 -125 71 -198 136 -410 50 -164 113 -473 143 -705 31 -232 55 -650 38
-650 -5 0 -13 64 -16 148 -25 539 -102 970 -256 1431 -318 950 -918 1787
-1719 2394 -1446 1099 -3390 1323 -5046 582 -939 -420 -1729 -1122 -2255
-2005 -90 -151 -108 -184 -170 -308 -210 -423 -349 -828 -444 -1302 -47 -235
-86 -609 -86 -827 0 -69 -4 -113 -10 -113 -13 0 -13 189 0 356 71 897 345
1694 836 2429 406 609 945 1121 1594 1515 160 97 526 279 700 347 754 297
1489 404 2315 337z m-124 -74 c1410 -96 2678 -768 3559 -1884 84 -106 278
-387 317 -457 10 -19 30 -52 44 -74 14 -22 56 -96 92 -164 305 -569 497 -1193
561 -1826 22 -218 32 -505 18 -505 -8 0 -12 32 -12 103 0 298 -62 750 -151
1102 -346 1375 -1295 2550 -2573 3184 -544 270 -1109 430 -1731 493 -193 19
-738 16 -943 -5 -804 -84 -1583 -366 -2247 -816 -626 -423 -1138 -976 -1520
-1641 -332 -576 -545 -1242 -614 -1920 -11 -98 -31 -410 -31 -472 0 -16 -5
-28 -10 -28 -19 0 7 432 40 673 111 795 410 1545 878 2197 512 713 1241 1302
2032 1642 487 210 965 332 1515 388 201 20 553 25 776 10z m-118 -80 c423 -20
788 -81 1186 -199 581 -173 1164 -479 1634 -860 289 -233 543 -489 766 -771
46 -58 92 -116 103 -130 53 -67 254 -379 316 -490 90 -162 185 -352 227 -454
18 -45 46 -112 62 -151 135 -320 264 -836 303 -1205 30 -288 41 -561 23 -567
-6 -2 -12 76 -16 194 -31 927 -351 1852 -911 2628 -264 365 -635 741 -1014
1028 -614 466 -1412 799 -2168 906 -279 40 -366 46 -714 46 -349 0 -437 -6
-723 -46 -597 -84 -1249 -320 -1782 -647 -1147 -703 -1952 -1845 -2214 -3142
-58 -285 -101 -656 -101 -872 0 -67 -4 -98 -12 -98 -19 0 5 422 37 665 125
920 528 1802 1150 2515 728 835 1728 1397 2815 1584 210 36 401 57 600 65 96
4 186 8 200 9 14 1 118 -3 233 -8z m272 -105 c650 -68 1238 -251 1805 -560
130 -71 158 -88 350 -213 413 -269 812 -643 1140 -1067 110 -143 271 -385 362
-545 354 -626 555 -1301 608 -2045 14 -197 13 -298 -2 -293 -10 3 -15 56 -19
194 -14 416 -82 807 -211 1218 -299 955 -891 1783 -1703 2386 -521 386 -1093
651 -1736 804 -393 94 -891 139 -1283 117 -707 -39 -1299 -193 -1901 -494
-471 -234 -846 -506 -1231 -891 -298 -299 -475 -525 -722 -921 -52 -85 -110
-193 -192 -362 -285 -583 -443 -1223 -467 -1880 -4 -115 -10 -173 -17 -173 -8
0 -9 55 -4 189 17 475 104 932 264 1387 310 885 878 1657 1639 2230 522 394
1190 698 1830 834 242 52 530 91 765 104 138 8 582 -4 725 -19z m25 -89 c751
-84 1448 -335 2065 -744 114 -75 230 -157 245 -172 3 -3 23 -18 45 -34 225
-165 544 -478 766 -750 109 -135 112 -138 225 -303 434 -631 700 -1345 789
-2123 20 -173 32 -510 18 -510 -6 0 -13 64 -17 158 -10 240 -45 546 -82 732
-184 919 -632 1751 -1296 2406 -241 238 -428 391 -698 569 -596 394 -1207 625
-1928 730 -779 113 -1613 11 -2357 -287 -1256 -504 -2229 -1528 -2670 -2811
-151 -437 -245 -964 -245 -1374 0 -108 -2 -123 -16 -123 -15 0 -16 15 -10 163
29 676 184 1295 471 1882 127 259 244 451 440 725 178 250 480 571 740 790
771 649 1700 1023 2715 1094 133 9 662 -3 800 -18z m-245 -66 c666 -44 1222
-193 1805 -485 905 -452 1653 -1221 2082 -2140 133 -283 255 -631 308 -875 70
-320 105 -552 115 -770 3 -63 8 -157 11 -207 4 -76 3 -93 -9 -93 -11 0 -15 34
-20 178 -19 565 -160 1168 -394 1685 -313 692 -786 1286 -1403 1763 -118 91
-339 239 -454 304 -17 9 -73 41 -124 69 -455 257 -1084 458 -1627 521 -1029
118 -2041 -102 -2920 -635 -793 -481 -1451 -1240 -1813 -2090 -220 -516 -330
-996 -364 -1587 -15 -262 -34 -281 -25 -25 11 299 35 482 102 797 138 636 417
1247 809 1765 50 66 99 131 111 144 352 424 747 766 1200 1038 778 468 1722
700 2610 643z m235 -104 c176 -21 445 -70 591 -106 344 -87 750 -242 1022
-392 38 -21 71 -38 73 -38 2 0 50 -28 106 -62 541 -323 991 -735 1356 -1238
86 -119 222 -323 222 -334 0 -2 19 -35 42 -72 63 -105 212 -412 267 -553 102
-259 175 -504 231 -769 47 -224 90 -607 90 -804 0 -81 -3 -98 -15 -98 -12 0
-15 20 -15 119 0 517 -148 1174 -383 1701 -410 922 -1164 1712 -2061 2162
-227 114 -422 193 -689 282 -27 9 -117 34 -200 55 -429 111 -752 147 -1225
138 -330 -6 -576 -32 -822 -87 -774 -172 -1424 -495 -2010 -998 -117 -101
-406 -396 -501 -512 -416 -507 -694 -1031 -868 -1640 -57 -196 -93 -370 -136
-655 -13 -87 -35 -373 -35 -462 0 -85 -3 -103 -15 -103 -18 0 -18 3 -5 220 30
489 105 870 254 1285 394 1101 1205 2013 2241 2520 543 266 1074 410 1690 459
124 9 666 -3 795 -18z m70 -95 c575 -79 1097 -252 1595 -529 119 -66 412 -258
509 -333 594 -462 1038 -1019 1345 -1686 241 -525 366 -1062 396 -1705 4 -101
3 -118 -10 -118 -9 0 -15 9 -15 23 -1 86 -23 405 -35 512 -62 524 -245 1092
-503 1560 -211 385 -432 677 -751 995 -356 355 -689 598 -1116 815 -338 171
-774 324 -1100 385 -452 84 -812 107 -1195 75 -347 -28 -585 -71 -900 -160
-433 -124 -865 -327 -1250 -589 -473 -322 -892 -749 -1204 -1230 -430 -661
-677 -1436 -703 -2208 -5 -140 -9 -178 -20 -178 -28 0 -7 365 37 660 107 706
383 1374 810 1955 251 343 581 671 941 937 614 454 1387 754 2134 827 61 6
126 13 145 15 19 2 193 3 385 1 288 -3 377 -7 505 -24z m-284 -61 c313 -25
535 -60 791 -126 663 -170 1253 -480 1778 -933 87 -75 385 -381 461 -472 243
-295 435 -592 585 -904 135 -282 257 -628 314 -891 62 -283 88 -457 105 -704
15 -213 13 -280 -5 -280 -12 0 -15 15 -15 78 0 98 -16 310 -36 467 -50 406
-174 847 -342 1215 -288 631 -698 1158 -1232 1586 -455 365 -936 614 -1520
785 -137 41 -415 97 -635 128 -229 33 -712 38 -970 11 -230 -25 -549 -88 -755
-150 -185 -55 -237 -73 -375 -127 -750 -295 -1397 -795 -1886 -1453 -397 -536
-677 -1202 -779 -1851 -24 -155 -50 -418 -50 -513 0 -104 -11 -176 -25 -176
-9 0 -12 15 -9 53 2 28 6 115 8 192 17 436 138 970 321 1409 159 383 362 724
624 1051 125 156 294 339 412 445 51 47 110 99 129 117 82 74 305 243 436 331
490 327 1071 559 1645 656 356 60 720 80 1025 56z m214 -104 c69 -9 199 -30
290 -47 1020 -185 1945 -756 2589 -1598 418 -546 701 -1207 810 -1886 26 -165
51 -440 51 -572 0 -85 -3 -103 -15 -103 -13 0 -15 20 -15 123 0 67 -7 186 -15
265 -72 706 -295 1343 -671 1913 -69 106 -225 321 -244 339 -3 3 -41 48 -85
100 -103 121 -312 332 -440 441 -573 491 -1245 814 -1985 953 -401 75 -902 87
-1338 31 -320 -42 -731 -154 -1047 -287 -1063 -446 -1902 -1314 -2309 -2388
-67 -176 -152 -461 -185 -625 -47 -226 -91 -609 -91 -792 0 -60 -3 -73 -16
-73 -14 0 -15 16 -9 148 19 438 86 806 214 1191 341 1018 1047 1861 1991 2378
515 281 1022 434 1665 503 135 14 712 5 855 -14z m-250 -66 c798 -48 1551
-317 2195 -784 343 -248 684 -589 923 -923 474 -662 734 -1393 782 -2203 13
-213 13 -230 -4 -230 -16 0 -26 69 -26 180 -1 281 -77 713 -187 1060 -161 509
-406 959 -752 1380 -109 133 -407 434 -531 536 -307 253 -619 448 -976 610
-145 65 -387 151 -569 201 -576 158 -1138 189 -1745 97 -731 -111 -1449 -442
-2025 -933 -182 -155 -414 -396 -552 -571 -101 -129 -303 -418 -303 -434 0 -2
-26 -48 -58 -103 -175 -299 -346 -734 -426 -1088 -62 -272 -106 -615 -106
-822 0 -94 -3 -113 -15 -113 -43 0 5 552 76 880 38 175 90 353 154 530 337
924 973 1685 1821 2178 700 407 1513 601 2324 552z m95 -95 c516 -42 963 -164
1430 -389 545 -262 1026 -646 1411 -1126 221 -275 422 -612 562 -940 56 -133
164 -448 196 -576 67 -266 113 -581 123 -846 5 -145 4 -168 -9 -168 -12 0 -17
35 -27 203 -34 584 -157 1062 -402 1564 -284 579 -695 1075 -1212 1461 -535
398 -1121 645 -1782 751 -820 131 -1666 2 -2410 -366 -951 -470 -1686 -1304
-2029 -2301 -130 -378 -200 -754 -213 -1134 -6 -168 -7 -178 -25 -178 -19 0
-20 6 -13 143 23 490 118 937 288 1362 168 417 390 784 690 1140 76 91 381
391 479 472 530 442 1166 743 1838 872 343 66 745 86 1105 56z m10 -86 c386
-35 733 -114 1080 -249 663 -256 1234 -674 1677 -1227 518 -646 837 -1480 864
-2258 2 -82 6 -167 8 -187 4 -32 1 -38 -15 -38 -17 0 -19 8 -19 93 0 96 -22
353 -41 481 -100 680 -382 1332 -809 1871 -64 81 -81 101 -223 255 -168 184
-405 388 -632 544 -526 363 -1104 583 -1765 671 -163 22 -590 31 -775 16 -783
-63 -1500 -341 -2130 -828 -231 -179 -532 -485 -716 -729 -138 -184 -319 -476
-387 -624 -11 -25 -39 -85 -62 -135 -58 -124 -142 -349 -179 -477 -100 -342
-146 -623 -167 -1015 -5 -94 -10 -123 -20 -123 -36 0 -2 449 57 750 90 458
260 905 486 1281 120 197 198 307 378 530 69 85 348 369 446 452 327 281 733
526 1134 685 566 224 1201 316 1810 261z m95 -93 c765 -95 1410 -368 2024
-856 45 -35 149 -130 251 -229 414 -402 725 -878 930 -1426 145 -390 219 -761
241 -1207 6 -128 5 -148 -8 -148 -21 0 -28 42 -28 157 0 162 -38 451 -90 688
-102 459 -292 901 -557 1295 -153 229 -269 368 -487 586 -282 281 -528 466
-874 659 -94 52 -140 74 -327 160 -33 15 -109 45 -170 67 -301 109 -577 176
-880 215 -200 26 -742 26 -935 0 -323 -43 -586 -107 -885 -217 -112 -42 -179
-70 -365 -158 -101 -47 -253 -137 -405 -237 -261 -173 -379 -269 -610 -500
-501 -500 -837 -1098 -1016 -1805 -56 -223 -109 -625 -109 -827 0 -71 -2 -83
-17 -83 -15 0 -16 17 -10 178 22 635 215 1274 555 1837 376 621 931 1134 1581
1459 455 229 926 361 1441 405 151 14 601 5 750 -13z m-115 -76 c433 -39 832
-143 1225 -318 574 -255 1093 -666 1478 -1170 465 -610 743 -1380 769 -2129 5
-152 4 -173 -10 -173 -12 0 -16 21 -21 118 -32 594 -135 1009 -379 1531 -107
229 -336 577 -525 801 -79 93 -356 366 -442 436 -147 120 -445 334 -464 334
-3 0 -39 20 -81 46 -398 235 -889 401 -1380 468 -793 108 -1629 -51 -2330
-442 -721 -402 -1299 -1040 -1627 -1797 -189 -434 -308 -978 -308 -1401 0 -87
-1 -94 -20 -94 -18 0 -20 7 -20 58 0 242 54 634 121 892 286 1091 1019 1984
2031 2474 436 211 827 317 1358 369 83 9 524 6 625 -3z m80 -96 c806 -84 1575
-444 2170 -1016 609 -586 993 -1341 1110 -2185 16 -115 35 -353 35 -440 0 -45
-3 -53 -18 -53 -17 0 -20 13 -26 143 -14 290 -43 499 -106 747 -149 586 -413
1087 -814 1544 -39 45 -82 94 -96 110 -28 32 -219 209 -295 273 -267 226 -576
417 -900 558 -857 374 -1840 405 -2723 86 -102 -37 -315 -128 -377 -161 -27
-15 -86 -46 -130 -70 -465 -247 -909 -640 -1232 -1090 -255 -356 -453 -772
-558 -1173 -83 -316 -113 -509 -122 -789 -6 -169 -7 -178 -26 -178 -20 0 -20
4 -14 178 7 184 19 293 57 497 108 597 367 1162 752 1646 82 103 284 326 339
373 19 16 60 54 92 83 32 29 100 86 150 126 785 621 1733 895 2732 791z m30
-88 c55 -8 133 -19 173 -25 294 -44 706 -178 1006 -328 954 -478 1645 -1333
1904 -2358 68 -268 98 -469 109 -737 6 -157 6 -158 -15 -158 -21 0 -22 4 -22
100 0 278 -70 689 -170 1000 -74 231 -220 553 -328 728 -29 46 -52 85 -52 87
0 8 -174 251 -229 320 -611 767 -1517 1256 -2491 1344 -145 14 -489 14 -640 1
-461 -40 -960 -187 -1360 -402 -141 -76 -152 -82 -263 -154 -636 -412 -1119
-996 -1399 -1694 -145 -361 -222 -712 -250 -1137 -11 -174 -14 -193 -30 -193
-22 0 -22 6 -8 225 26 402 124 825 273 1175 497 1175 1563 2005 2812 2190 77
12 180 25 230 30 132 13 630 3 750 -14z m-240 -66 c542 -32 1050 -177 1514
-434 298 -165 557 -360 797 -602 561 -564 910 -1270 1009 -2044 11 -87 35
-392 35 -452 0 -5 -9 -8 -19 -8 -17 0 -20 11 -25 118 -44 812 -302 1494 -795
2102 -47 58 -155 175 -241 260 -500 501 -1108 825 -1810 964 -416 82 -947 78
-1370 -10 -529 -111 -1022 -337 -1435 -659 -635 -495 -1070 -1160 -1264 -1937
-55 -219 -101 -557 -101 -744 0 -90 -1 -94 -22 -94 -21 0 -21 1 -14 148 13
295 50 528 126 805 131 475 370 931 688 1312 528 631 1232 1051 2027 1209 336
67 574 85 900 66z m220 -105 c792 -101 1489 -444 2043 -1003 433 -438 739
-975 893 -1570 58 -224 109 -596 109 -793 0 -61 -2 -69 -19 -69 -17 0 -19 12
-25 133 -31 578 -174 1081 -446 1557 -104 182 -255 399 -355 509 -17 20 -72
81 -122 136 -138 153 -314 308 -513 449 -516 367 -1085 572 -1733 625 -450 37
-950 -30 -1398 -188 -693 -245 -1314 -736 -1721 -1361 -114 -175 -262 -460
-318 -616 -154 -423 -230 -800 -230 -1141 l0 -103 -25 0 c-14 0 -25 6 -25 13
0 85 26 369 46 505 46 312 121 574 251 872 315 725 889 1332 1600 1693 431
219 823 326 1353 371 98 8 522 -4 635 -19z m25 -89 c604 -84 1149 -311 1620
-675 502 -388 889 -914 1106 -1504 119 -325 189 -670 201 -994 6 -172 6 -173
-15 -173 -21 0 -22 5 -22 73 0 271 -65 652 -161 953 -204 642 -637 1242 -1189
1651 -581 429 -1261 653 -1985 653 -727 0 -1414 -229 -1998 -667 -151 -113
-217 -171 -374 -329 -471 -477 -778 -1065 -907 -1739 -21 -105 -46 -334 -46
-411 0 -34 -3 -89 -6 -123 -6 -50 -10 -61 -25 -61 -17 0 -19 8 -19 73 0 198
48 546 106 772 27 103 94 306 139 415 177 434 410 786 745 1121 428 429 892
701 1483 869 193 55 364 86 632 114 97 10 605 -3 715 -18z m-193 -67 c1164
-95 2174 -775 2695 -1813 195 -388 308 -806 338 -1251 14 -219 15 -215 -15
-215 l-25 0 0 105 c0 433 -154 1008 -386 1435 -273 506 -703 954 -1194 1245
-349 207 -714 342 -1130 416 -220 39 -639 51 -885 25 -847 -91 -1639 -525
-2173 -1192 -143 -178 -250 -338 -336 -504 -22 -41 -47 -88 -56 -105 -9 -16
-44 -95 -77 -175 -149 -353 -229 -712 -249 -1115 -7 -126 -8 -135 -27 -135
-20 0 -20 5 -14 158 23 605 226 1202 584 1720 193 280 473 568 754 774 626
460 1431 690 2196 627z m44 -89 c742 -72 1415 -384 1943 -899 407 -399 685
-864 846 -1417 67 -231 120 -574 120 -784 0 -81 -2 -90 -19 -90 -17 0 -19 12
-25 128 -39 732 -293 1374 -764 1932 -86 101 -292 300 -410 395 -483 388
-1033 615 -1662 686 -140 16 -497 16 -640 0 -614 -67 -1171 -292 -1635 -660
-607 -480 -1020 -1164 -1155 -1911 -29 -162 -50 -358 -50 -472 l0 -98 -26 0
-27 0 7 118 c25 424 91 730 233 1082 298 741 885 1361 1608 1699 339 158 743
267 1095 294 105 8 466 6 561 -3z m-125 -80 c366 -20 675 -89 1014 -227 139
-57 353 -164 427 -214 23 -16 44 -29 47 -29 3 0 62 -39 130 -87 330 -233 596
-507 811 -833 117 -179 156 -246 231 -409 176 -382 263 -741 290 -1198 l6
-113 -24 0 c-25 0 -25 0 -32 136 -24 452 -127 847 -325 1243 -129 257 -304
509 -494 711 -738 785 -1795 1126 -2852 919 -760 -148 -1446 -594 -1908 -1239
-182 -254 -360 -625 -445 -930 -65 -229 -112 -525 -112 -696 0 -109 -8 -144
-31 -144 -17 0 -19 9 -19 90 0 146 22 328 66 547 161 805 667 1539 1369 1988
302 193 643 335 1010 419 152 35 371 63 545 69 41 2 86 4 100 5 14 1 102 -3
196 -8z m85 -90 c292 -29 458 -64 719 -150 590 -195 1123 -590 1491 -1105 319
-446 512 -968 558 -1510 6 -66 11 -150 11 -187 0 -65 -1 -68 -23 -68 -24 0
-24 1 -30 143 -32 750 -358 1470 -903 1998 -423 409 -942 678 -1516 788 -354
68 -754 70 -1099 5 -988 -183 -1814 -846 -2209 -1769 -89 -208 -174 -504 -204
-715 -15 -99 -36 -345 -36 -417 0 -28 -3 -33 -25 -33 -29 0 -29 -10 -15 190
15 206 34 329 86 538 70 284 173 543 312 782 377 648 973 1135 1675 1366 232
76 440 118 737 147 82 8 376 6 471 -3z m84 -96 c572 -65 1104 -293 1554 -667
261 -217 526 -537 681 -822 24 -44 51 -93 60 -110 22 -41 106 -235 137 -315
97 -260 173 -661 173 -917 0 -84 -2 -93 -19 -93 -22 0 -31 40 -31 145 0 139
-40 399 -90 591 -143 543 -462 1062 -877 1426 -178 156 -387 302 -563 393 -41
21 -88 46 -105 55 -46 26 -271 115 -360 144 -200 63 -410 108 -595 127 -147
15 -474 15 -610 0 -432 -49 -878 -203 -1230 -427 -194 -123 -329 -233 -505
-409 -345 -344 -560 -691 -711 -1145 -83 -251 -144 -598 -144 -825 0 -73 -1
-75 -25 -75 -30 0 -30 9 -15 225 18 245 70 496 154 740 107 314 288 638 499
895 642 781 1620 1178 2622 1064z m69 -94 c332 -50 615 -141 911 -294 553
-285 992 -739 1266 -1311 159 -331 254 -711 275 -1097 l7 -128 -27 0 c-25 0
-26 2 -26 58 0 252 -73 631 -172 902 -166 454 -446 855 -818 1174 -120 103
-154 128 -265 202 -329 220 -687 363 -1070 429 -727 125 -1453 -29 -2055 -436
-169 -114 -269 -197 -416 -343 -320 -321 -532 -660 -680 -1090 -83 -241 -141
-556 -145 -789 -1 -106 -2 -107 -25 -107 -24 0 -24 1 -24 100 0 54 9 170 20
257 90 696 414 1311 939 1780 456 407 1026 653 1651 713 153 14 494 4 654 -20z
m-104 -75 c586 -62 1156 -322 1586 -724 530 -495 850 -1179 881 -1883 l6 -148
-25 0 -25 0 -7 135 c-28 567 -224 1088 -582 1552 -84 109 -320 346 -434 436
-337 267 -750 461 -1150 541 -914 182 -1823 -90 -2479 -743 -465 -462 -746
-1083 -791 -1741 -5 -80 -10 -153 -10 -162 0 -13 -8 -18 -26 -18 l-27 0 7 128
c11 198 45 414 96 606 83 312 269 685 475 953 94 121 114 144 254 283 446 444
1015 716 1641 785 163 18 440 18 610 0z m-118 -75 c531 -39 1008 -217 1437
-537 135 -101 406 -368 499 -491 213 -282 358 -561 451 -872 70 -232 100 -410
115 -672 l7 -108 -29 0 -29 0 -6 143 c-47 1067 -772 2015 -1808 2360 -261 88
-535 130 -834 129 -356 -1 -665 -63 -1008 -204 -98 -40 -133 -57 -277 -136
-265 -145 -566 -401 -761 -647 -352 -443 -542 -947 -575 -1527 -7 -115 -7
-118 -30 -118 -23 0 -24 3 -24 79 0 176 35 411 94 628 159 587 516 1104 1011
1465 506 369 1147 554 1767 508z m103 -95 c585 -68 1099 -310 1519 -715 192
-185 339 -378 488 -640 49 -85 128 -273 174 -408 76 -227 116 -443 130 -699
l7 -123 -26 0 c-25 0 -25 1 -32 108 -29 477 -164 898 -408 1275 -98 150 -194
268 -330 406 -411 416 -931 670 -1517 742 -131 16 -464 16 -590 0 -412 -53
-791 -194 -1123 -418 -152 -102 -244 -179 -382 -317 -138 -139 -227 -247 -326
-396 -69 -103 -206 -362 -236 -443 -118 -324 -167 -548 -180 -824 -6 -131 -6
-133 -29 -133 -24 0 -24 2 -24 95 0 379 129 835 338 1197 210 363 501 670 846
892 337 218 748 362 1154 405 131 14 409 12 547 -4z m134 -105 c719 -128 1327
-537 1718 -1155 98 -155 213 -407 267 -586 50 -163 90 -375 101 -529 3 -47 8
-113 11 -147 l6 -63 -30 0 -29 0 -7 133 c-47 891 -592 1702 -1404 2089 -590
281 -1297 313 -1907 86 -568 -211 -1039 -624 -1323 -1158 -172 -324 -260 -648
-288 -1062 -6 -86 -6 -88 -31 -88 l-26 0 7 127 c19 356 105 682 267 1004 154
309 390 602 660 821 313 253 694 434 1084 513 188 38 262 44 540 41 215 -3
282 -7 384 -26z m-91 -75 c524 -70 1002 -307 1378 -680 66 -66 147 -154 180
-195 328 -411 509 -883 540 -1412 l7 -118 -30 0 -30 0 -6 128 c-16 321 -90
608 -237 907 -346 708 -991 1184 -1775 1311 -58 9 -189 18 -311 21 -232 6
-400 -12 -614 -63 -312 -75 -647 -237 -886 -428 -28 -23 -66 -53 -85 -68 -52
-41 -241 -235 -303 -310 -322 -397 -498 -857 -532 -1390 -7 -105 -7 -108 -30
-108 -13 0 -24 6 -25 13 -9 175 34 469 105 703 98 328 309 691 541 934 228
239 425 386 705 526 279 139 581 221 915 248 93 7 379 -4 493 -19z m-46 -80
c216 -28 391 -73 578 -147 736 -290 1280 -940 1435 -1713 28 -142 45 -286 45
-390 l0 -75 -30 0 -30 0 0 89 c0 434 -192 955 -488 1326 -374 468 -882 759
-1482 850 -145 22 -489 22 -625 0 -242 -39 -416 -89 -603 -171 -799 -354
-1322 -1108 -1369 -1974 l-6 -120 -30 0 -30 0 7 113 c14 231 62 471 136 682
73 208 251 522 387 684 406 484 948 779 1561 851 119 13 424 11 544 -5z
m-2804 -2570 c351 -57 617 -310 725 -690 15 -53 21 -111 24 -240 4 -155 3
-180 -21 -283 -47 -208 -118 -344 -251 -477 -165 -165 -356 -233 -575 -205
-374 49 -645 318 -747 742 -24 102 -24 360 1 478 82 386 286 619 591 675 95
18 143 18 253 0z m5179 4 c298 -41 531 -216 677 -507 77 -153 115 -372 96
-550 -19 -180 -45 -275 -110 -409 -51 -105 -71 -134 -144 -210 -123 -129 -238
-191 -406 -220 -70 -13 -102 -13 -182 -4 -271 33 -480 174 -630 426 -145 242
-181 554 -103 875 64 262 222 466 428 552 122 52 236 66 374 47z m-7112 -23
c249 -14 415 -94 486 -233 31 -61 34 -75 34 -152 0 -78 -3 -91 -33 -147 -18
-33 -53 -78 -78 -98 -57 -48 -167 -106 -200 -106 -14 0 -22 -4 -19 -10 3 -5
17 -10 29 -10 50 0 225 -53 314 -95 74 -35 108 -59 161 -112 75 -75 102 -120
125 -210 32 -122 10 -273 -53 -371 -104 -162 -323 -266 -636 -302 -49 -5 -258
-10 -462 -10 -310 0 -373 2 -373 14 0 15 42 26 101 26 66 0 114 26 135 73 18
39 19 80 19 822 0 723 -1 783 -17 815 -25 50 -51 62 -146 71 -89 8 -97 11 -90
31 4 10 68 13 304 11 165 -1 344 -4 399 -7z m4303 -11 c2 -8 0 -15 -5 -16
-151 -11 -175 -17 -204 -45 -22 -22 -32 -45 -39 -89 -13 -79 -13 -1450 0
-1530 12 -76 46 -111 117 -120 26 -3 67 -8 91 -11 27 -3 42 -10 42 -19 0 -12
-59 -15 -370 -17 -366 -3 -371 -3 -368 17 3 18 15 21 128 31 69 7 126 12 128
13 1 1 2 382 2 848 0 534 -4 843 -9 838 -6 -6 -61 -104 -124 -220 -63 -115
-153 -282 -202 -370 -48 -87 -103 -189 -123 -225 -19 -36 -60 -110 -90 -165
-30 -55 -111 -203 -180 -330 -68 -126 -128 -234 -132 -240 -10 -13 -70 -131
-70 -138 0 -3 46 -8 103 -12 119 -8 137 -12 137 -30 0 -20 -600 -27 -608 -7
-7 21 2 24 93 33 48 5 107 18 131 28 90 40 193 172 328 421 44 80 102 188 131
240 28 52 85 156 125 230 40 74 95 174 121 222 27 49 49 90 49 92 0 3 31 59
122 224 113 204 130 267 82 299 -22 14 -61 17 -272 20 -282 4 -332 8 -332 28
0 7 8 15 17 17 9 2 278 2 597 1 508 -3 581 -5 584 -18z m980 1 c4 -19 -15 -23
-153 -31 -60 -3 -111 -7 -112 -9 -2 -2 -2 -166 -1 -366 l3 -363 175 194 c96
107 193 214 216 239 158 173 263 294 258 301 -3 5 -43 9 -89 9 -94 0 -115 5
-115 29 0 15 27 16 300 13 256 -2 300 -5 300 -17 0 -8 -1 -15 -2 -15 -2 -1
-46 -5 -98 -9 -102 -10 -184 -36 -248 -79 -62 -41 -148 -120 -209 -189 l-55
-62 55 -153 c31 -84 86 -234 122 -333 72 -194 126 -340 155 -420 48 -132 113
-291 145 -354 65 -129 121 -173 240 -186 89 -9 105 -14 105 -30 0 -13 -49 -15
-366 -15 -343 0 -365 1 -362 18 3 14 19 18 92 24 49 4 92 10 95 13 6 7 -9 53
-75 225 -24 63 -73 196 -109 295 -37 99 -88 239 -115 310 -26 72 -72 194 -101
273 -29 78 -55 142 -58 141 -3 0 -63 -65 -134 -145 l-127 -144 2 -478 3 -477
130 -10 c114 -9 130 -12 130 -28 0 -16 -22 -18 -370 -18 -316 0 -370 2 -373
15 -2 11 10 16 42 20 25 3 67 9 92 12 65 8 101 44 114 113 14 73 13 1470 0
1542 -7 37 -19 63 -39 83 -26 25 -39 30 -116 37 -92 8 -100 11 -93 31 4 10 80
13 374 11 321 -2 369 -4 372 -17z m3700 -14 c198 -52 305 -152 333 -311 20
-112 -17 -210 -112 -295 -53 -48 -162 -106 -198 -106 -12 0 -21 -4 -21 -10 0
-5 12 -10 26 -10 47 0 198 -42 286 -80 223 -96 331 -242 332 -450 3 -318 -233
-505 -707 -560 -44 -5 -246 -10 -450 -10 -324 -1 -372 0 -375 14 -2 11 9 16
42 20 25 3 66 8 90 12 55 6 91 33 108 82 19 53 19 1550 0 1603 -22 64 -50 81
-147 90 -92 8 -100 11 -93 31 4 10 83 12 404 7 363 -5 406 -8 482 -27z m-2688
-2105 c41 1 245 2 453 2 l377 1 0 70 c0 40 4 70 10 70 6 0 10 -13 10 -29 0
-16 18 -174 40 -352 22 -178 41 -333 43 -343 1 -11 -3 -21 -9 -23 -7 -2 -22
69 -43 195 -37 234 -45 260 -84 308 -50 60 -93 74 -234 74 l-123 0 0 -534 0
-534 75 -7 c49 -5 75 -11 72 -19 -5 -14 -426 -16 -429 -1 -2 6 21 12 49 15 65
7 84 24 94 87 4 26 8 261 8 521 l1 474 -132 -4 c-149 -3 -177 -13 -230 -79
-36 -44 -51 -100 -83 -310 -28 -182 -32 -196 -44 -183 -9 9 73 705 87 734 3 8
9 -19 12 -60 l5 -75 75 2z m-392 -85 c3 -238 -1 -249 -56 -163 -103 159 -325
240 -480 175 l-33 -13 41 -37 c129 -117 202 -328 180 -521 -11 -95 -51 -225
-85 -275 -14 -20 -25 -41 -25 -46 0 -15 70 -57 133 -80 70 -26 183 -30 227 -7
84 43 132 184 110 322 -14 86 -54 220 -90 300 -21 46 -25 63 -15 67 15 5 25
-15 71 -142 51 -141 67 -222 62 -322 -6 -137 -62 -230 -173 -288 -45 -24 -61
-27 -161 -27 -108 0 -112 1 -187 38 l-77 38 -63 -31 c-268 -132 -577 32 -679
360 -30 96 -31 268 -4 375 23 88 76 194 122 245 127 140 348 170 541 73 l51
-25 30 20 c78 56 235 90 332 72 30 -5 82 -23 115 -39 32 -16 63 -27 67 -25 4
3 8 20 8 37 0 66 13 138 24 134 7 -2 12 -72 14 -215z m-4493 82 c154 -39 270
-139 344 -291 49 -99 61 -157 61 -278 0 -182 -49 -321 -153 -432 -139 -148
-331 -179 -523 -84 -181 90 -304 308 -304 539 0 150 62 337 141 427 102 116
271 162 434 119z m-1085 -16 c59 -30 88 -87 94 -184 5 -75 14 -100 107 -319
157 -364 182 -422 195 -453 23 -51 15 -111 -19 -136 -27 -20 -40 -21 -260 -21
-214 0 -235 2 -266 20 -94 55 -97 112 -18 351 88 265 128 430 133 559 5 99 3
113 -15 143 -19 29 -26 32 -68 32 -65 0 -122 -31 -187 -101 -100 -108 -187
-286 -260 -535 -19 -66 -61 -198 -94 -294 l-59 -175 -71 -3 c-40 -2 -72 -1
-72 1 0 7 59 163 79 210 20 47 20 48 1 90 -72 159 -215 489 -260 602 -50 123
-53 140 -35 174 24 46 62 53 297 49 192 -3 209 -5 235 -24 56 -42 68 -78 68
-199 l0 -111 30 58 c120 232 300 339 445 266z m2704 13 c3 -5 -21 -12 -53 -16
-103 -12 -96 28 -96 -541 0 -487 0 -494 21 -514 14 -14 39 -23 78 -27 55 -6
58 -8 79 -47 39 -75 127 -266 127 -276 0 -21 -18 -9 -31 21 -16 39 -84 133
-130 178 -19 18 -63 48 -99 65 l-65 31 -311 3 c-343 4 -448 -4 -521 -39 -63
-31 -148 -118 -197 -202 -35 -61 -56 -82 -56 -57 0 5 34 79 76 163 l77 155 66
7 c76 8 136 32 168 66 17 19 173 284 173 295 0 1 27 50 60 108 33 58 60 108
60 110 0 5 172 324 206 382 26 45 31 86 12 102 -7 5 -93 13 -190 17 -98 4
-178 11 -178 16 0 12 717 12 724 0z m568 -91 c16 -52 53 -174 82 -270 30 -96
76 -248 102 -337 27 -90 52 -163 55 -163 4 0 9 15 13 33 3 17 34 131 67 252
86 309 136 493 149 543 l11 42 144 0 c147 0 191 -12 90 -25 -42 -5 -59 -12
-75 -32 -19 -25 -20 -39 -20 -514 0 -481 0 -489 21 -507 20 -20 61 -32 105
-32 13 0 24 -4 24 -10 0 -6 -82 -10 -225 -10 -124 0 -225 4 -225 9 0 10 59 21
118 21 l42 0 -1 488 0 487 -49 -170 c-71 -249 -157 -560 -179 -645 -38 -149
-52 -190 -66 -190 -9 0 -21 23 -31 58 -8 31 -37 127 -64 212 -27 85 -57 187
-68 225 -11 39 -29 99 -40 135 -11 36 -32 106 -47 155 -15 50 -42 135 -59 190
l-31 100 -3 -510 c-1 -280 0 -516 3 -522 2 -8 23 -13 52 -13 64 0 123 -11 123
-21 0 -5 -81 -9 -180 -9 -179 0 -235 11 -120 24 100 11 94 -15 98 506 2 245 0
464 -3 488 -9 59 -32 79 -99 87 -108 14 -56 26 101 23 l156 -3 29 -95z m4258
90 c0 -10 -41 -19 -110 -22 l-45 -3 -3 -218 c-1 -134 1 -217 7 -215 14 5 391
421 391 432 0 3 -15 6 -34 6 -47 0 -96 11 -96 21 0 5 83 9 185 9 102 0 185 -4
185 -8 0 -5 -31 -13 -70 -19 -97 -15 -144 -41 -229 -127 l-74 -75 61 -163 c33
-90 90 -242 126 -338 125 -338 141 -359 264 -376 111 -14 42 -24 -174 -24
-136 0 -223 4 -219 9 3 5 30 13 60 16 30 4 55 10 55 13 0 4 -11 36 -24 72 -13
36 -53 144 -89 240 -143 387 -160 431 -168 428 -5 -2 -43 -41 -84 -88 l-75
-85 3 -285 2 -285 35 -3 c75 -5 120 -14 120 -23 0 -5 -91 -9 -225 -9 -214 0
-291 10 -168 23 38 4 63 13 77 27 21 20 21 30 24 483 2 254 0 477 -3 495 -9
49 -35 69 -99 77 -117 15 -48 25 169 25 136 0 225 -4 225 -10z m1160 1 c0 -11
-51 -21 -111 -21 l-49 0 0 -520 c0 -286 2 -520 4 -520 2 0 10 19 19 43 9 23
45 123 82 222 36 99 86 232 110 295 92 242 175 467 175 474 0 3 -21 6 -47 6
-56 0 -93 9 -93 21 0 5 101 9 225 9 217 0 286 -10 169 -25 -67 -8 -90 -28 -99
-87 -3 -24 -5 -246 -3 -494 3 -522 -3 -488 99 -500 122 -14 51 -24 -166 -24
-124 0 -225 4 -225 9 0 10 58 21 113 21 l37 0 -1 503 c0 276 -3 495 -6 487 -3
-8 -29 -78 -58 -155 -29 -77 -79 -210 -110 -295 -32 -85 -75 -202 -97 -260
-50 -131 -98 -263 -98 -271 0 -4 29 -10 65 -14 132 -14 62 -25 -160 -25 -214
0 -287 10 -173 23 33 4 60 14 72 27 21 20 21 30 21 516 l0 496 -23 18 c-12 10
-47 22 -77 25 -30 4 -52 11 -49 16 7 12 454 12 454 0z"/>
<path d="M3545 5758 c-258 -35 -392 -253 -371 -603 27 -448 253 -862 550
-1008 106 -53 189 -70 317 -65 97 4 113 8 182 41 126 60 209 167 253 328 25
89 25 313 0 429 -97 459 -365 790 -699 864 -86 19 -162 24 -232 14z"/>
<path d="M8745 5759 c-164 -22 -281 -123 -340 -290 -26 -73 -37 -230 -25 -362
12 -137 28 -215 67 -332 120 -363 352 -618 620 -681 48 -11 99 -15 174 -12 97
4 112 7 185 42 128 60 216 177 255 336 19 78 16 333 -5 430 -74 334 -237 603
-455 749 -138 94 -323 140 -476 120z"/>
<path d="M1730 4925 l0 -895 78 0 c340 1 631 148 721 365 110 264 -19 510
-325 616 -82 28 -238 59 -301 59 -26 0 -33 4 -33 19 0 16 10 19 69 23 85 6
150 36 211 98 82 82 121 206 100 322 -36 195 -176 288 -437 288 l-83 0 0 -895z"/>
<path d="M10530 4926 l0 -896 78 0 c350 0 658 166 731 393 27 86 34 155 22
220 -31 169 -158 297 -367 369 -88 31 -229 58 -296 58 -30 0 -38 4 -38 19 0
16 10 19 73 23 129 8 230 78 286 198 23 48 26 68 26 161 0 98 -2 110 -30 164
-21 40 -46 72 -80 97 -79 60 -142 79 -282 85 l-123 6 0 -897z"/>
<path d="M6829 3656 c-89 -19 -152 -76 -185 -168 -24 -65 -20 -261 6 -363 55
-212 176 -379 328 -451 48 -23 70 -27 147 -27 49 0 103 5 118 11 l28 12 -51
61 c-82 99 -132 218 -150 358 -18 136 18 327 79 423 l30 47 -27 19 c-99 70
-222 100 -323 78z"/>
<path d="M7177 3488 c-53 -143 -41 -302 37 -487 32 -77 137 -231 156 -231 5 0
19 26 31 58 27 69 31 212 10 312 -28 129 -99 274 -180 368 -27 31 -36 28 -54
-20z"/>
<path d="M3099 3660 c-151 -25 -229 -157 -216 -364 8 -125 38 -232 97 -353 63
-128 145 -215 248 -264 60 -29 76 -33 157 -32 77 0 97 3 141 26 63 32 107 83
136 157 32 83 30 244 -6 363 -42 142 -100 245 -186 333 -99 100 -247 154 -371
134z"/>
<path d="M1258 3675 c-15 -9 -31 -27 -34 -40 -8 -31 31 -130 191 -495 40 -91
80 -182 88 -202 9 -21 18 -38 21 -38 12 0 82 257 117 425 16 80 17 231 1 276
-7 20 -24 47 -38 60 -24 23 -33 24 -172 26 -117 2 -153 0 -174 -12z"/>
<path d="M2341 3249 c-18 -74 -61 -222 -96 -329 -73 -225 -78 -245 -70 -270
10 -32 61 -40 256 -40 183 0 189 1 215 24 27 23 28 25 15 67 -7 24 -39 102
-71 174 -31 71 -88 202 -124 290 -37 88 -73 173 -80 189 -11 27 -14 21 -45
-105z"/>
<path d="M4660 3603 c-14 -26 -39 -72 -56 -103 -17 -30 -47 -84 -66 -120 -19
-36 -116 -216 -216 -400 -99 -184 -184 -343 -188 -352 -6 -17 11 -18 275 -18
l281 0 0 520 c0 286 -1 520 -3 520 -1 0 -14 -21 -27 -47z"/>
</g>
</svg>
