<svg width="24" height="24" xmlns="http://www.w3.org/2000/svg" fill="none">
 <defs>
  <clipPath id="clip0_429_11098">
   <rect id="svg_1" fill="white" height="24" width="24"/>
  </clipPath>
 </defs>
 <g>
  <title>Layer 1</title>
  <g id="svg_2" clip-path="url(#clip0_429_11098)">
   <path fill="#ff7f00" id="svg_3" stroke-linejoin="round" stroke-width="2.5" stroke="#292929" d="m5,7c0,-1.10457 0.89543,-2 2,-2l1,0c1.10457,0 2,0.89543 2,2l0,10c0,1.1046 -0.89543,2 -2,2l-1,0c-1.10457,0 -2,-0.8954 -2,-2l0,-10z"/>
   <path fill="#ff7f00" id="svg_4" stroke-linejoin="round" stroke-width="2.5" stroke="#292929" d="m14,7c0,-1.10457 0.8954,-2 2,-2l1,0c1.1046,0 2,0.89543 2,2l0,10c0,1.1046 -0.8954,2 -2,2l-1,0c-1.1046,0 -2,-0.8954 -2,-2l0,-10z"/>
  </g>
 </g>
</svg>